<?xml version="1.0" standalone="no"?>
<!DOCTYPE svg PUBLIC "-//W3C//DTD SVG 20010904//EN"
 "http://www.w3.org/TR/2001/REC-SVG-20010904/DTD/svg10.dtd">
<svg version="1.0" xmlns="http://www.w3.org/2000/svg"
 width="700.000000pt" height="700.000000pt" viewBox="0 0 700.000000 700.000000"
 preserveAspectRatio="xMidYMid meet">

<g transform="translate(0.000000,700.000000) scale(0.100000,-0.100000)"
fill="#9333EA" stroke="none">
<path d="M4025 5324 c-22 -2 -89 -9 -150 -14 -614 -60 -1298 -295 -1957 -674
-398 -229 -718 -278 -1123 -172 -126 33 -135 33 -104 0 63 -68 211 -154 329
-192 134 -42 171 -47 365 -47 160 0 207 4 300 24 160 34 314 87 440 152 360
185 473 240 590 288 547 222 1100 324 1587 292 398 -26 703 -101 1055 -258
189 -85 431 -231 604 -365 86 -66 126 -81 184 -72 53 9 88 27 142 77 57 52 83
104 83 163 0 77 -12 90 -180 201 -281 185 -475 290 -690 373 -74 29 -144 56
-155 61 -139 56 -398 113 -655 145 -110 14 -581 27 -665 18z"/>
<path d="M4013 4708 c-399 -19 -790 -121 -1233 -320 -226 -101 -433 -215 -733
-403 l-78 -48 -402 47 c-221 25 -412 46 -424 46 -12 0 -42 -17 -67 -37 l-45
-38 0 -120 c-1 -137 7 -161 61 -190 l37 -20 403 51 402 51 201 -102 c111 -56
271 -131 356 -167 781 -332 1498 -407 2148 -227 60 17 75 18 82 7 19 -29 4
-47 -103 -124 -62 -45 -225 -163 -363 -263 -651 -476 -1050 -704 -1465 -840
-543 -177 -1051 -123 -1475 156 -119 79 -170 123 -153 134 10 7 7 14 -12 31
-174 156 -230 457 -126 675 62 129 179 231 318 277 292 98 605 -36 668 -286 7
-27 16 -48 20 -48 17 0 20 -58 5 -115 -27 -102 -80 -174 -109 -145 -5 5 -11
37 -12 70 -5 122 -55 250 -110 287 -14 9 -39 17 -57 19 -18 1 -64 6 -103 9
-201 20 -374 -99 -413 -285 -7 -30 -16 -57 -22 -61 -14 -8 6 -110 32 -161 10
-20 44 -64 75 -97 224 -242 527 -242 775 0 122 120 179 280 165 470 -11 165
-73 297 -187 403 -80 73 -123 96 -249 130 -142 38 -232 49 -345 42 -165 -9
-300 -58 -422 -150 -190 -144 -294 -354 -308 -622 -2 -47 -7 -89 -10 -95 -17
-27 43 -217 108 -343 108 -208 442 -455 761 -561 181 -60 279 -76 508 -82 227
-6 325 2 523 44 486 101 1072 385 1645 796 94 68 403 305 435 334 11 10 61 52
110 92 50 41 131 112 181 158 l91 83 7 -31 c3 -17 6 -46 6 -65 0 -18 5 -36 10
-39 14 -9 12 -62 -2 -68 -10 -3 -9 -12 4 -38 9 -19 16 -47 16 -64 0 -16 7
-104 16 -195 41 -405 66 -710 66 -801 0 -17 -8 -36 -20 -46 -47 -41 4 -61 54
-22 37 29 48 55 95 212 87 291 204 561 314 729 72 109 190 241 311 348 81 72
96 90 96 116 0 64 -9 67 -190 65 -90 -1 -167 -4 -170 -6 -3 -2 -55 -5 -115 -6
-132 -3 -135 0 -135 111 l0 76 48 23 c81 39 163 91 277 177 l110 82 171 4
c162 3 173 5 207 28 48 33 69 73 69 129 0 55 -22 105 -55 122 -15 9 -75 12
-194 10 l-172 -2 -23 26 c-13 15 -72 64 -133 110 -329 248 -674 419 -975 484
-290 63 -510 83 -777 69z m-381 -327 c3 -20 -9 -59 -34 -118 -38 -86 -39 -90
-34 -178 9 -160 55 -266 164 -378 67 -69 143 -117 232 -148 85 -29 246 -32
335 -5 197 58 365 237 405 433 18 83 8 254 -18 321 -20 51 -20 52 -1 52 68 0
405 -133 574 -227 143 -79 344 -215 351 -237 8 -25 -3 -35 -131 -111 -670
-404 -1459 -496 -2320 -269 -331 87 -711 236 -868 339 l-28 18 93 55 c117 69
371 196 508 255 229 97 501 178 761 226 4 0 9 -12 11 -28z"/>
</g>
</svg>
