<?xml version="1.0" encoding="UTF-8"?>
<svg width="1440" height="1024" viewBox="0 0 1440 1024" fill="none" xmlns="http://www.w3.org/2000/svg">
    <defs>
        <pattern id="smallGrid" width="20" height="20" patternUnits="userSpaceOnUse">
            <path d="M 20 0 L 0 0 0 20" fill="none" stroke="rgba(255,255,255,0.07)" stroke-width="0.5"/>
        </pattern>
        <pattern id="grid" width="100" height="100" patternUnits="userSpaceOnUse">
            <rect width="100" height="100" fill="url(#smallGrid)"/>
            <path d="M 100 0 L 0 0 0 100" fill="none" stroke="rgba(255,255,255,0.1)" stroke-width="1"/>
        </pattern>
        <radialGradient id="dots" cx="50%" cy="50%" r="50%" fx="50%" fy="50%">
            <stop offset="0%" stop-color="rgba(255,255,255,0.1)"/>
            <stop offset="100%" stop-color="rgba(255,255,255,0)"/>
        </radialGradient>
    </defs>
    
    <!-- Fond dégradé -->
    <rect width="100%" height="100%" fill="url(#gradient)"/>
    
    <!-- Grille -->
    <rect width="100%" height="100%" fill="url(#grid)"/>
    
    <!-- Motifs circulaires -->
    <circle cx="200" cy="200" r="3" fill="rgba(255,255,255,0.2)"/>
    <circle cx="600" cy="400" r="2" fill="rgba(255,255,255,0.15)"/>
    <circle cx="1000" cy="300" r="4" fill="rgba(255,255,255,0.1)"/>
    <circle cx="400" cy="700" r="3" fill="rgba(255,255,255,0.12)"/>
    <circle cx="800" cy="600" r="2" fill="rgba(255,255,255,0.18)"/>
    <circle cx="1200" cy="800" r="3" fill="rgba(255,255,255,0.14)"/>
    
    <!-- Vagues subtiles -->
    <path d="M 0 700 Q 360 600, 720 700 T 1440 700" 
          stroke="rgba(255,255,255,0.05)" fill="none" stroke-width="1"/>
    <path d="M 0 750 Q 360 650, 720 750 T 1440 750" 
          stroke="rgba(255,255,255,0.03)" fill="none" stroke-width="1"/>
    
    <!-- Points aléatoires -->
    <g fill="rgba(255,255,255,0.05)">
        <circle cx="150" cy="150" r="1"/>
        <circle cx="450" cy="250" r="1"/>
        <circle cx="750" cy="350" r="1"/>
        <circle cx="1050" cy="450" r="1"/>
        <circle cx="250" cy="550" r="1"/>
        <circle cx="550" cy="650" r="1"/>
        <circle cx="850" cy="750" r="1"/>
        <circle cx="1150" cy="850" r="1"/>
    </g>
    
    <defs>
        <linearGradient id="gradient" x1="0" y1="0" x2="100%" y2="100%">
            <stop offset="0%" stop-color="#2B3582"/>
            <stop offset="50%" stop-color="#312E81"/>
            <stop offset="100%" stop-color="#3730A3"/>
        </linearGradient>
    </defs>
</svg>
